<svg width="1110" height="1826" viewBox="0 0 1110 1826" fill="none" xmlns="http://www.w3.org/2000/svg">
<path d="M509.767 2.44698C516.097 1.60698 522.847 0.74698 524.767 0.54698C526.687 0.34698 540.307 0.10698 555.017 0.0169801C573.597 -0.0930199 585.967 0.32698 595.517 1.40698C603.077 2.26698 615.797 4.08698 623.767 5.47698C631.737 6.85698 644.567 9.48698 652.267 11.327C659.967 13.167 672.117 16.567 679.267 18.877C686.417 21.187 698.567 25.567 706.267 28.597C713.967 31.637 724.767 36.377 730.267 39.127C735.767 41.877 746.797 47.737 754.767 52.137C762.737 56.537 773.987 63.297 779.767 67.157C785.547 71.017 795.667 78.227 802.267 83.177C808.867 88.127 816.517 93.997 819.267 96.227C822.017 98.447 828.077 103.667 832.737 107.817C837.387 111.967 846.187 120.307 852.287 126.357C858.387 132.407 866.137 140.507 869.507 144.357C872.877 148.207 877.767 153.827 880.357 156.857C882.957 159.877 885.687 162.697 886.427 163.107C887.167 163.517 887.777 164.417 887.777 165.107C887.787 165.797 888.667 167.257 889.727 168.357C890.797 169.457 892.927 171.827 894.467 173.617C896.007 175.417 898.047 177.887 899.007 179.117C899.957 180.347 905.597 188.107 911.537 196.357C917.477 204.607 926.367 217.117 931.297 224.167C936.227 231.207 943.417 242.097 947.267 248.377C951.117 254.647 955.847 262.837 957.767 266.567C959.687 270.307 961.557 273.587 961.917 273.857C962.267 274.127 963.167 275.737 963.917 277.417C964.657 279.097 972.007 293.497 980.247 309.417C988.487 325.337 997.157 342.627 999.517 347.857C1001.88 353.087 1003.81 357.807 1003.81 358.357C1003.81 358.907 1007.33 367.677 1011.64 377.857C1015.95 388.037 1021.06 400.407 1023 405.357C1024.94 410.307 1029.7 423.587 1033.6 434.857C1037.49 446.127 1042.3 460.527 1044.3 466.857C1046.29 473.187 1050.41 486.907 1053.45 497.357C1056.48 507.807 1061.13 524.687 1063.77 534.857C1066.42 545.027 1070.48 561.687 1072.8 571.857C1075.12 582.027 1077.84 594.407 1078.84 599.357C1079.83 604.307 1081.85 614.657 1083.32 622.357C1084.79 630.057 1086.15 637.707 1086.35 639.357C1086.56 641.007 1086.97 644.157 1087.28 646.357C1087.58 648.557 1088.49 653.957 1089.29 658.357C1090.1 662.757 1091.17 668.377 1091.68 670.857C1092.19 673.337 1093.56 681.657 1094.73 689.357C1095.9 697.057 1097.09 705.837 1097.37 708.857C1097.65 711.877 1098.77 721.777 1099.86 730.857C1100.95 739.937 1102.02 749.607 1102.25 752.357C1102.47 755.107 1102.94 760.507 1103.29 764.357C1103.63 768.207 1104.09 773.607 1104.31 776.357L1104.38 777.376C1104.61 780.34 1104.98 785.187 1105.26 788.857C1105.56 792.977 1106.02 799.507 1106.28 803.357C1106.53 807.207 1106.95 815.307 1107.2 821.357C1107.46 827.407 1107.98 837.087 1108.36 842.857C1108.74 848.627 1109.17 877.437 1109.31 906.857C1109.46 936.277 1109.09 971.157 1108.5 984.357C1107.91 997.557 1107.32 1010.83 1107.21 1013.86C1107.09 1016.89 1106.71 1022.06 1106.37 1025.36C1106.03 1028.66 1105.03 1040.14 1104.15 1050.86C1103.28 1061.58 1102.41 1072.39 1102.23 1074.86C1102.05 1077.33 1100.78 1089.03 1099.41 1100.86C1098.03 1112.69 1095.75 1129.78 1094.35 1138.86C1092.94 1147.94 1091.51 1157.39 1091.17 1159.86C1090.84 1162.33 1090.55 1165.03 1090.54 1165.86C1090.53 1166.69 1088.97 1175.69 1087.08 1185.86C1085.18 1196.03 1083.41 1206.16 1083.14 1208.36C1082.86 1210.56 1082.22 1213.71 1081.71 1215.36C1081.2 1217.01 1080.58 1219.71 1080.34 1221.36C1080.09 1223.01 1079.19 1227.06 1078.34 1230.36C1077.49 1233.66 1075.2 1243.33 1073.24 1251.86C1071.29 1260.39 1067.41 1275.91 1064.64 1286.36C1061.86 1296.81 1057.39 1313.01 1054.72 1322.36C1052.04 1331.71 1046.72 1348.58 1042.9 1359.86C1039.08 1371.14 1033.71 1386.44 1030.98 1393.86C1028.25 1401.28 1022.09 1417.03 1017.29 1428.86C1012.49 1440.69 1005.11 1457.78 1000.88 1466.86C996.657 1475.94 988.157 1493.03 982.007 1504.86C975.857 1516.69 967.067 1532.89 962.477 1540.86C957.887 1548.83 950.787 1560.64 946.697 1567.1C942.617 1573.56 935.237 1584.81 930.307 1592.1C925.377 1599.39 918.647 1608.96 915.357 1613.36C912.067 1617.76 903.077 1629.23 895.387 1638.86C885.807 1650.85 874.447 1663.31 859.327 1678.41C847.197 1690.53 831.647 1705.2 824.767 1711C817.897 1716.8 805.967 1726.26 798.267 1732.03C790.567 1737.79 779.547 1745.67 773.767 1749.53C767.987 1753.39 759.217 1759.02 754.267 1762.04C749.317 1765.07 742.347 1769.15 738.767 1771.11C735.187 1773.08 725.517 1778.04 717.267 1782.14C709.017 1786.25 695.517 1792.32 687.267 1795.65C679.017 1798.98 668.437 1803.1 663.767 1804.8C659.097 1806.51 648.297 1809.88 639.767 1812.29C631.237 1814.7 621.117 1817.36 617.267 1818.22C613.417 1819.07 604.867 1820.48 598.267 1821.36C591.667 1822.23 583.117 1823.39 579.267 1823.93C575.417 1824.47 563.037 1825.19 551.767 1825.52C539.017 1825.91 526.167 1825.69 517.767 1824.96C510.347 1824.31 498.867 1822.89 492.267 1821.79C485.667 1820.7 474.867 1818.64 468.267 1817.21C461.667 1815.79 451.537 1813.16 445.767 1811.36C439.997 1809.56 431.437 1806.66 426.767 1804.92C422.097 1803.17 411.747 1799 403.767 1795.64C395.787 1792.28 388.147 1788.79 386.767 1787.87C385.397 1786.95 380.897 1784.49 376.767 1782.39C372.647 1780.29 363.867 1775.43 357.267 1771.59C350.667 1767.76 339.417 1760.66 332.267 1755.83C325.117 1751 312.747 1741.79 304.767 1735.37C296.787 1728.96 283.367 1717.33 274.927 1709.53C266.497 1701.74 253.267 1688.39 245.527 1679.86C237.797 1671.33 226.487 1658.28 220.407 1650.86C214.317 1643.44 205.947 1632.86 201.797 1627.35C197.657 1621.84 189.347 1609.92 183.327 1600.85C177.317 1591.78 167.147 1575.58 160.727 1564.86C154.317 1554.14 147.107 1541.76 144.727 1537.36C142.337 1532.96 140.107 1529.14 139.777 1528.86C139.437 1528.58 137.727 1525.77 135.967 1522.61C134.207 1519.45 132.997 1516.86 133.267 1516.86C133.537 1516.86 132.367 1514.5 130.657 1511.61C128.957 1508.72 126.517 1503.89 125.257 1500.86C123.987 1497.83 120.487 1490.41 117.467 1484.36C114.447 1478.31 110.527 1470.21 108.757 1466.36C106.987 1462.51 103.087 1453.74 100.077 1446.86C97.0769 1439.99 92.8669 1429.86 90.7169 1424.36C88.5669 1418.86 84.1569 1407.16 80.9069 1398.36C77.6569 1389.56 71.1469 1370.44 66.4369 1355.86C61.7269 1341.28 54.2369 1315.41 49.7969 1298.36C45.3669 1281.31 41.1169 1265.11 40.3769 1262.36C39.6269 1259.61 38.4869 1254.66 37.8369 1251.36C37.1969 1248.06 34.9069 1236.81 32.7669 1226.36C30.6269 1215.91 27.4669 1199.71 25.7469 1190.36C24.0369 1181.01 22.4169 1172.24 22.1669 1170.86C21.9069 1169.49 21.5169 1167.24 21.2869 1165.86C21.0569 1164.49 20.4269 1161.33 19.8869 1158.86C19.3469 1156.39 18.6169 1151.89 18.2569 1148.86C17.9069 1145.83 17.4469 1142.24 17.2469 1140.86C17.0369 1139.49 16.6369 1136.56 16.3469 1134.36C16.0569 1132.16 15.3669 1127.44 14.8069 1123.86C14.2569 1120.28 12.9169 1110.39 11.8269 1101.86C10.7469 1093.33 9.11687 1078.94 8.21688 1069.86C7.32688 1060.78 6.40688 1050.44 6.17688 1046.86L6.11661 1045.88C5.8955 1042.28 5.57865 1037.13 5.38688 1033.86C5.17688 1030.28 4.46688 1020.83 3.81687 1012.86C3.15687 1004.89 2.43688 994.307 2.21688 989.357C1.98688 984.407 1.64687 976.527 1.45687 971.857C1.25687 967.187 0.746875 944.237 0.316875 920.857C-0.203125 892.627 -0.083125 869.117 0.676875 850.857C1.29688 835.737 2.49688 813.007 3.32687 800.357C4.16687 787.707 5.07687 774.207 5.35687 770.357C5.63688 766.507 6.04688 760.437 6.26687 756.857C6.48687 753.277 7.07688 746.987 7.57688 742.857C8.08687 738.737 8.54688 734.457 8.60688 733.357C8.66688 732.257 8.93687 729.337 9.20687 726.857C9.47688 724.377 10.3969 716.957 11.2569 710.357C12.1169 703.757 12.9969 696.107 13.2269 693.357C13.4469 690.607 14.1769 685.207 14.8369 681.357C15.4969 677.507 16.1069 673.457 16.2069 672.357C16.2969 671.257 16.9169 667.767 17.5669 664.607C18.2269 661.447 18.5769 658.517 18.3369 658.107C18.0969 657.697 18.3869 655.337 18.9669 652.857C19.5469 650.377 19.9769 647.457 19.9269 646.357C19.8669 645.257 21.1869 637.157 22.8469 628.357C24.5169 619.557 27.6969 604.707 29.9169 595.357C32.1469 586.007 35.6769 571.377 37.7769 562.857C39.8769 554.337 41.9069 545.337 42.2969 542.857C42.6769 540.377 44.0169 534.987 45.2669 530.857C46.5269 526.737 49.2369 517.507 51.2969 510.357C53.3569 503.207 56.1569 493.757 57.5269 489.357C58.8869 484.957 61.5569 476.857 63.4469 471.357C65.3369 465.857 68.1469 457.307 69.6769 452.357C71.2069 447.407 73.2469 441.557 74.2069 439.357C75.1669 437.157 78.1269 429.507 80.7869 422.357C83.4469 415.207 87.8569 403.957 90.5869 397.357C93.3169 390.757 99.4569 376.587 104.237 365.857C109.007 355.127 117.997 336.237 124.207 323.857C130.427 311.487 136.967 298.657 138.747 295.357C140.537 292.057 145.637 283.057 150.077 275.357C154.527 267.657 164.437 251.457 172.107 239.357C179.777 227.257 188.087 214.427 190.577 210.857C193.067 207.287 196.037 203.007 197.187 201.357C198.327 199.707 199.497 198.137 199.777 197.857C200.057 197.577 204.767 191.737 210.247 184.857C215.727 177.987 225.467 166.287 231.887 158.857C238.317 151.427 251.377 137.627 260.917 128.177C270.457 118.727 283.667 106.407 290.267 100.787C296.867 95.177 303.617 89.387 305.267 87.917C306.917 86.447 313.437 81.707 319.767 77.377C326.097 73.037 334.417 67.387 338.267 64.827C342.117 62.257 350.667 57.087 357.267 53.327C363.867 49.577 376.467 43.027 385.267 38.777C394.067 34.527 405.317 29.477 410.267 27.557C415.217 25.627 423.997 22.407 429.767 20.407C435.537 18.397 447.247 14.987 455.767 12.827C464.287 10.667 477.347 7.79698 484.767 6.44698C492.187 5.08698 503.437 3.29698 509.767 2.44698Z" fill="#030403"/>
<path d="M504.767 7.88699C512.747 6.75699 524.437 5.41699 530.767 4.91699C537.097 4.41699 551.717 4.16699 563.267 4.35699C574.817 4.54699 590.117 5.42699 597.267 6.29699C604.417 7.17699 615.897 8.82699 622.767 9.96699C629.647 11.097 642.017 13.747 650.267 15.847C658.517 17.947 671.117 21.547 678.267 23.867C685.417 26.177 697.347 30.467 704.767 33.387C712.187 36.317 723.897 41.377 730.767 44.637C737.647 47.897 749.347 54.047 756.767 58.317C764.187 62.587 773.867 68.577 778.267 71.637C782.667 74.687 793.227 82.397 801.737 88.767C810.247 95.147 821.717 104.357 827.237 109.257C832.757 114.147 840.797 121.567 845.107 125.757C849.417 129.937 858.207 139.207 864.637 146.357C871.067 153.507 879.717 163.407 883.857 168.357C887.987 173.307 895.587 182.977 900.737 189.857C905.877 196.727 911.297 203.927 912.767 205.857C914.237 207.787 919.737 215.657 924.987 223.357C930.237 231.057 937.437 242.087 940.997 247.857C944.557 253.627 950.837 264.427 954.967 271.857C959.097 279.287 964.187 288.507 966.277 292.357C968.377 296.207 975.477 310.157 982.067 323.357C988.647 336.557 998.067 356.807 1002.99 368.357C1007.92 379.907 1016.13 400.607 1021.24 414.357C1026.36 428.107 1032.64 445.657 1035.21 453.357C1037.78 461.057 1041.93 474.337 1044.44 482.857C1046.95 491.377 1051.15 506.227 1053.78 515.857C1056.41 525.477 1059.72 537.627 1061.13 542.857C1062.54 548.087 1065.27 559.337 1067.2 567.857C1069.13 576.377 1072.31 591.457 1074.26 601.357C1076.22 611.257 1078.92 625.437 1080.26 632.857C1081.6 640.277 1084.71 659.627 1087.17 675.857C1089.63 692.087 1092.78 714.807 1094.18 726.357C1095.58 737.907 1097.63 757.937 1098.73 770.857C1099.83 783.777 1101.42 806.277 1102.26 820.857C1103.1 835.437 1104.07 867.607 1104.41 892.357C1104.81 920.537 1104.6 949.697 1103.85 970.357C1103.2 988.507 1102.04 1013.03 1101.27 1024.86C1100.5 1036.69 1099.38 1051.98 1098.79 1058.86C1098.2 1065.73 1096.6 1081.03 1095.25 1092.86C1093.9 1104.69 1091.22 1125.39 1089.3 1138.86C1087.38 1152.33 1084.43 1171.01 1082.75 1180.36C1081.08 1189.71 1078.86 1202.08 1077.83 1207.86C1076.8 1213.64 1074.31 1225.56 1072.3 1234.36C1070.3 1243.16 1066.92 1257.33 1064.8 1265.86C1062.67 1274.39 1060.27 1283.83 1059.45 1286.86C1058.63 1289.89 1056.1 1299.11 1053.82 1307.36C1051.55 1315.61 1048.55 1326.19 1047.17 1330.86C1045.79 1335.53 1042.38 1346.33 1039.6 1354.86C1036.82 1363.39 1030.59 1380.94 1025.76 1393.86C1020.92 1406.78 1015.3 1421.41 1013.26 1426.36C1011.21 1431.31 1007.61 1439.86 1005.25 1445.36C1002.89 1450.86 997.727 1462.11 993.767 1470.36C989.817 1478.61 985.007 1488.51 983.077 1492.36C981.147 1496.21 976.627 1504.98 973.037 1511.86C969.437 1518.73 964.377 1527.96 961.787 1532.36C959.197 1536.76 955.477 1543.28 953.517 1546.86C951.567 1550.44 946.067 1559.44 941.297 1566.86C936.527 1574.28 927.277 1588.01 920.737 1597.36C914.197 1606.71 903.827 1620.66 897.707 1628.36C891.587 1636.06 883.807 1645.51 880.417 1649.35C877.037 1653.2 870.917 1659.95 866.817 1664.35C862.717 1668.76 853.477 1677.98 846.277 1684.86C839.077 1691.73 828.477 1701.45 822.727 1706.44C816.977 1711.44 804.847 1721.08 795.767 1727.87C786.687 1734.66 773.527 1743.96 766.517 1748.54C759.507 1753.11 753.547 1756.86 753.267 1756.86C752.987 1756.86 747.477 1759.96 741.017 1763.76C734.557 1767.55 724.317 1773.14 718.267 1776.19C712.217 1779.23 700.737 1784.48 692.767 1787.86C684.797 1791.24 672.417 1796.18 665.267 1798.85C658.117 1801.52 648.217 1804.85 643.267 1806.23C638.317 1807.62 628.637 1810.13 621.767 1811.81C614.897 1813.5 602.737 1815.76 594.767 1816.85C586.797 1817.93 573.967 1819.28 566.267 1819.84C558.567 1820.4 546.867 1820.84 540.267 1820.84C533.667 1820.83 521.747 1820.18 513.767 1819.39C505.787 1818.61 492.967 1816.81 485.267 1815.39C477.567 1813.98 466.537 1811.65 460.767 1810.23C454.997 1808.8 444.417 1805.6 437.267 1803.12C430.117 1800.64 418.077 1795.97 410.517 1792.74C402.957 1789.5 392.157 1784.55 386.517 1781.72C380.877 1778.89 369.517 1772.67 361.267 1767.89C353.017 1763.11 341.997 1756.22 336.767 1752.59C331.537 1748.96 324.347 1743.83 320.767 1741.19C317.187 1738.54 310.667 1733.48 306.267 1729.94C301.867 1726.39 292.637 1718.45 285.767 1712.29C278.897 1706.12 266.507 1694.17 258.237 1685.72C249.977 1677.27 239.847 1666.36 235.737 1661.47C231.627 1656.58 224.747 1648.25 220.457 1642.97C216.157 1637.68 206.197 1624.36 198.327 1613.36C190.447 1602.36 180.747 1588.19 176.757 1581.86C172.767 1575.53 167.477 1566.98 164.997 1562.86C162.517 1558.73 155.347 1546.14 149.067 1534.86C142.777 1523.58 132.967 1504.91 127.267 1493.36C121.567 1481.81 114.817 1467.64 112.247 1461.86C109.687 1456.08 105.437 1446.41 102.807 1440.36C100.177 1434.31 94.9969 1421.48 91.2969 1411.86C87.5969 1402.23 80.9969 1383.78 76.6269 1370.86C72.2569 1357.94 67.3269 1342.86 65.6669 1337.36C63.9969 1331.86 61.5169 1323.08 60.1569 1317.86C58.7869 1312.64 55.8969 1302.06 53.7169 1294.36C51.5469 1286.66 48.4369 1274.06 46.7969 1266.36C45.1669 1258.66 41.8369 1243.58 39.3969 1232.86C36.9669 1222.14 33.9969 1207.96 32.8069 1201.36C31.6269 1194.76 29.7469 1184.19 28.6369 1177.86C27.5369 1171.53 26.2369 1163.89 25.7669 1160.86C25.2869 1157.83 23.7269 1147.48 22.3069 1137.86C20.8769 1128.23 18.8069 1113.61 17.7069 1105.36C16.6069 1097.11 15.0369 1083.16 14.2169 1074.36C13.3969 1065.56 11.6369 1044.64 10.2969 1027.86C8.96688 1011.08 7.37688 988.137 6.77688 976.857C6.17688 965.587 5.66688 934.307 5.65688 907.357C5.63688 880.407 6.11688 846.877 6.72688 832.857C7.33688 818.837 8.71688 795.437 9.80688 780.857C10.8869 766.277 12.2069 750.087 12.7469 744.857C13.2869 739.627 14.6669 726.587 15.8169 715.857C16.9669 705.127 18.9969 688.477 20.3169 678.857C21.6469 669.227 23.4169 656.857 24.2569 651.357C25.0969 645.857 27.1569 634.377 28.8469 625.857C30.5269 617.337 33.4369 603.157 35.3069 594.357C37.1769 585.557 41.2169 568.457 44.2969 556.357C47.3669 544.257 51.6869 527.837 53.8869 519.857C56.0969 511.877 60.6369 496.807 63.9769 486.357C67.3169 475.907 73.5269 457.457 77.7769 445.357C82.0269 433.257 88.8969 414.807 93.0569 404.357C97.2069 393.907 105.317 375.007 111.067 362.357C116.817 349.707 125.607 331.257 130.607 321.357C135.597 311.457 145.217 293.677 151.987 281.857C158.747 270.037 167.797 254.727 172.087 247.857C176.377 240.977 183.977 229.507 188.977 222.357C193.977 215.207 202.127 203.957 207.087 197.357C212.057 190.757 219.737 181.077 224.147 175.857C228.567 170.637 237.357 160.507 243.687 153.357C250.017 146.207 259.267 136.297 264.237 131.327C269.207 126.367 275.967 119.817 279.267 116.777C282.567 113.737 290.887 106.527 297.767 100.767C304.637 95.007 314.767 87.107 320.267 83.227C325.767 79.337 334.317 73.477 339.267 70.187C344.217 66.907 353.437 61.237 359.767 57.597C366.097 53.957 378.687 47.397 387.767 43.027C396.847 38.657 408.317 33.487 413.267 31.537C418.217 29.597 430.137 25.527 439.767 22.507C449.387 19.487 464.687 15.427 473.767 13.487C482.847 11.537 496.787 9.01699 504.767 7.88699Z" fill="#EDEDE9"/>
<path d="M495.767 26.367C503.187 24.937 515.347 23.137 522.767 22.367C532.077 21.397 544.647 21.077 563.267 21.337C580.227 21.567 594.357 22.287 601.267 23.257C607.317 24.117 615.867 25.477 620.267 26.287C624.667 27.087 631.417 28.267 635.267 28.897C639.117 29.537 643.617 30.437 645.267 30.907C646.917 31.387 653.887 33.397 660.767 35.387C667.637 37.377 674.617 39.577 676.267 40.297C677.917 41.007 681.067 42.277 683.267 43.117C685.467 43.967 692.217 46.557 698.267 48.887C704.317 51.217 715.567 56.197 723.267 59.947C730.967 63.697 741.547 69.057 746.767 71.857C751.987 74.657 758.967 78.517 762.267 80.437C765.567 82.357 770.837 85.817 773.967 88.137C777.107 90.457 784.307 95.927 789.967 100.287C795.637 104.647 802.967 110.447 806.267 113.167C809.567 115.897 821.217 126.727 832.167 137.237C843.107 147.757 856.817 161.757 862.627 168.357C868.437 174.957 879.517 188.907 887.257 199.357C894.997 209.807 902.917 220.607 904.867 223.357C906.817 226.107 913.377 236.227 919.437 245.857C925.507 255.477 933.837 269.207 937.957 276.357C942.067 283.507 947.937 294.087 950.997 299.857C954.057 305.627 961.517 320.257 967.587 332.357C973.657 344.457 979.587 356.837 980.777 359.857C981.957 362.877 985.987 372.337 989.727 380.857C993.457 389.377 999.237 403.557 1002.56 412.357C1005.88 421.157 1012.64 440.507 1017.58 455.357C1022.52 470.207 1029.06 490.907 1032.11 501.357C1035.16 511.807 1039.68 528.007 1042.16 537.357C1044.64 546.707 1048.73 563.807 1051.24 575.357C1053.76 586.907 1056.74 600.627 1057.86 605.857C1058.98 611.087 1060.31 617.157 1060.83 619.357C1061.34 621.557 1062.18 626.057 1062.7 629.357C1063.21 632.657 1065.04 643.227 1066.76 652.857C1068.48 662.477 1070.99 678.227 1072.33 687.857C1073.67 697.477 1075.65 713.227 1076.74 722.857C1077.82 732.477 1079.6 749.807 1080.69 761.357C1081.78 772.907 1083.14 790.907 1083.72 801.357C1084.3 811.807 1085.22 833.407 1085.77 849.357C1086.32 865.307 1086.77 890.957 1086.77 906.357C1086.78 921.757 1086.31 950.337 1085.75 969.857C1085.18 989.387 1083.57 1021.56 1082.18 1041.36C1080.79 1061.16 1078.54 1086.81 1077.18 1098.36C1075.81 1109.91 1073.34 1128.81 1071.68 1140.36C1070.03 1151.91 1067.77 1165.86 1066.66 1171.36C1065.55 1176.86 1063.38 1188.11 1061.83 1196.36C1060.28 1204.61 1056.91 1220.81 1054.35 1232.36C1051.79 1243.91 1046.99 1264.16 1043.67 1277.36C1040.36 1290.56 1036.82 1304.06 1035.8 1307.36C1034.79 1310.66 1032.09 1319.44 1029.79 1326.86C1027.5 1334.28 1023.01 1348.23 1019.81 1357.86C1016.6 1367.48 1010.5 1384.58 1006.23 1395.86C1001.97 1407.14 997.227 1419.06 995.717 1422.36C994.197 1425.66 990.887 1433.2 988.357 1439.11C985.837 1445.02 983.777 1450.2 983.797 1450.61C983.807 1451.02 981.047 1457.21 977.657 1464.36C974.267 1471.51 970.497 1478.94 969.277 1480.86C968.067 1482.78 962.677 1492.69 957.317 1502.86C951.947 1513.03 943.707 1527.89 939.007 1535.86C934.297 1543.83 927.037 1555.89 922.857 1562.65C918.687 1569.41 913.997 1576.38 912.447 1578.15C910.897 1579.91 907.327 1584.73 904.517 1588.86C901.717 1592.98 896.707 1599.96 893.397 1604.36C890.077 1608.76 883.017 1617.76 877.697 1624.36C872.377 1630.96 861.977 1642.89 854.587 1650.86C847.207 1658.83 834.207 1671.73 825.717 1679.51C817.217 1687.29 807.577 1695.84 804.287 1698.51C800.997 1701.18 792.217 1707.98 784.787 1713.63C777.347 1719.27 764.967 1728.1 757.267 1733.25C749.567 1738.39 740.117 1744.3 736.267 1746.38C732.417 1748.46 724.987 1752.52 719.767 1755.42C714.547 1758.31 705.097 1763.14 698.767 1766.15C692.437 1769.17 684.797 1772.76 681.767 1774.13C678.737 1775.51 669.737 1778.89 661.767 1781.65C653.797 1784.41 645.017 1787.42 642.267 1788.34C639.517 1789.26 631.757 1791.33 625.017 1792.94C618.277 1794.55 611.307 1796.06 609.517 1796.31C607.727 1796.55 601.097 1797.65 594.767 1798.74C588.437 1799.83 576.517 1801.27 568.267 1801.94C559.267 1802.66 546.267 1802.91 535.767 1802.55C526.147 1802.22 511.747 1801 503.767 1799.84C495.787 1798.67 484.317 1796.65 478.267 1795.35C472.217 1794.05 461.417 1791.21 454.267 1789.04C447.117 1786.87 436.537 1783.28 430.767 1781.06C424.997 1778.84 416.887 1775.58 412.767 1773.81C408.637 1772.05 400.997 1768.36 395.767 1765.62C390.537 1762.89 380.867 1757.78 374.267 1754.28C367.667 1750.78 359.447 1745.99 355.997 1743.64C352.557 1741.28 347.037 1737.56 343.747 1735.36C340.457 1733.16 334.457 1728.89 330.417 1725.86C326.377 1722.83 319.537 1717.44 315.227 1713.86C310.917 1710.28 304.887 1705.01 301.827 1702.14C298.767 1699.27 295.817 1696.91 295.267 1696.9C294.717 1696.89 284.557 1687.09 272.697 1675.12C260.137 1662.44 245.357 1646.26 237.297 1636.36C229.697 1627.01 221.957 1617.11 220.107 1614.36C218.257 1611.61 210.597 1600.14 203.087 1588.86C195.567 1577.58 183.627 1558.69 176.547 1546.86C169.467 1535.03 157.217 1512.53 149.337 1496.86C141.447 1481.19 132.067 1461.83 128.477 1453.86C124.897 1445.89 118.937 1431.94 115.247 1422.86C111.557 1413.78 106.517 1400.96 104.067 1394.36C101.607 1387.76 96.2069 1372.91 92.0669 1361.36C87.9169 1349.81 83.9269 1337.66 83.1769 1334.36C82.4369 1331.06 80.9469 1325.44 79.8669 1321.86C78.7769 1318.28 75.8669 1307.94 73.3869 1298.86C70.9069 1289.78 67.4869 1276.73 65.7769 1269.86C64.0769 1262.98 60.8969 1249.26 58.7169 1239.36C56.5269 1229.46 54.3069 1219.56 53.7869 1217.36C53.2569 1215.16 51.2569 1204.81 49.3269 1194.36C47.4069 1183.91 44.7069 1168.61 43.3369 1160.36C41.9569 1152.11 39.7269 1137.26 38.3769 1127.36C37.0269 1117.46 34.9669 1101.03 33.8069 1090.86C32.6469 1080.69 31.2769 1068.98 30.7769 1064.86C30.2669 1060.73 29.3869 1052.41 28.8169 1046.36C28.2369 1040.31 27.1069 1026.14 26.2869 1014.86C25.4769 1003.58 24.2969 985.137 23.6869 973.857C23.0669 962.587 22.5569 930.627 22.5669 902.857C22.5669 875.087 23.0669 843.587 23.6769 832.857C24.2869 822.127 25.2469 805.257 25.8269 795.357C26.3969 785.457 27.5369 769.257 28.3569 759.357C29.1769 749.457 30.7269 733.707 31.7969 724.357C32.8569 715.007 34.1669 703.977 34.6869 699.857C35.2169 695.727 36.5969 685.837 37.7569 677.857C38.9069 669.877 40.9469 656.607 42.2769 648.357C43.5969 640.107 46.7469 623.227 49.2669 610.857C51.7869 598.477 56.3369 578.457 59.3669 566.357C62.3969 554.257 67.3669 535.807 70.3969 525.357C73.4369 514.907 80.3469 493.087 85.7469 476.857C91.1469 460.627 99.8569 436.337 105.097 422.857C110.347 409.377 116.467 393.967 118.697 388.607C120.937 383.247 125.957 371.997 129.867 363.607C133.767 355.217 140.017 342.287 143.767 334.857C147.507 327.427 153.017 316.857 155.997 311.357C158.977 305.857 164.277 296.177 167.777 289.857C171.277 283.537 179.517 269.807 186.087 259.357C192.667 248.907 203.067 233.377 209.197 224.857C215.327 216.337 223.477 205.147 227.307 200.007C231.137 194.857 239.187 184.727 245.197 177.507C251.207 170.277 265.177 155.357 276.237 144.357C287.297 133.357 300.827 120.877 306.307 116.627C311.787 112.377 321.507 104.957 327.907 100.127C334.307 95.307 342.407 89.267 345.907 86.727C349.407 84.177 355.867 79.877 360.267 77.177C364.667 74.467 371.867 70.407 376.267 68.137C380.667 65.877 389.217 61.777 395.267 59.017C401.317 56.267 410.317 52.137 415.267 49.827C420.217 47.527 428.537 44.097 433.767 42.217C438.997 40.327 444.167 38.617 445.267 38.407C446.367 38.197 455.137 35.987 464.767 33.497C474.387 31.007 488.347 27.797 495.767 26.367Z" fill="#030403"/>
<path d="M521.767 84.907C528.097 84.317 535.287 83.667 537.767 83.447C540.247 83.237 552.387 83.207 564.767 83.397C580.807 83.637 591.567 84.347 602.267 85.867C610.517 87.037 621.547 88.877 626.767 89.947C631.987 91.027 640.317 92.977 645.267 94.287C650.217 95.597 661.917 99.697 671.267 103.397C680.617 107.097 693.667 112.817 700.267 116.117C706.867 119.407 716.987 124.817 722.767 128.127C728.547 131.447 737.987 137.347 743.767 141.237C749.547 145.137 761.237 153.947 769.767 160.807C778.297 167.667 786.827 174.647 788.727 176.317C790.637 177.987 795.817 182.677 800.227 186.747C804.647 190.807 813.847 199.807 820.667 206.747C827.487 213.677 834.237 220.797 835.667 222.547C837.097 224.307 843.027 231.277 848.847 238.047C854.667 244.817 863.717 255.977 868.967 262.857C874.217 269.727 882.757 281.427 887.947 288.857C893.137 296.287 900.687 307.537 904.727 313.857C908.767 320.177 914.187 328.957 916.767 333.357C919.347 337.757 923.947 346.087 926.987 351.857C930.027 357.627 937.717 372.707 944.067 385.357C950.427 398.007 959.077 416.227 963.287 425.857C967.507 435.477 974.247 451.677 978.277 461.857C982.307 472.027 988.047 487.107 991.027 495.357C994.017 503.607 999.417 519.807 1003.03 531.357C1006.65 542.907 1010.73 556.187 1012.11 560.857C1013.49 565.527 1016.4 576.557 1018.57 585.357C1020.74 594.157 1023.23 604.507 1024.1 608.357C1024.97 612.207 1026.81 621.207 1028.19 628.357C1029.57 635.507 1032.06 648.557 1033.71 657.357C1035.37 666.157 1038.5 686.407 1040.67 702.357C1042.84 718.307 1045.32 739.457 1046.18 749.357C1047.05 759.257 1048.2 772.977 1048.73 779.857C1049.26 786.727 1050.28 801.357 1050.99 812.357C1051.83 825.477 1052.26 855.557 1052.23 899.857C1052.21 942.447 1051.74 973.997 1050.97 985.357C1050.29 995.257 1049.27 1008.31 1048.71 1014.36C1048.14 1020.41 1046.81 1033.46 1045.74 1043.36C1044.68 1053.26 1043.32 1065.41 1042.73 1070.36C1042.13 1075.31 1041.01 1082.96 1040.22 1087.36C1039.43 1091.76 1037.21 1105.71 1035.28 1118.36C1033.34 1131.01 1031.09 1144.51 1030.26 1148.36C1029.44 1152.21 1028.06 1158.73 1027.19 1162.86C1026.33 1166.98 1023.39 1179.81 1020.67 1191.36C1017.94 1202.91 1013.66 1220.01 1011.15 1229.36C1008.65 1238.71 1004.57 1252.89 1002.1 1260.86C999.627 1268.83 995.877 1280.31 993.787 1286.36C991.687 1292.41 987.257 1304.56 983.947 1313.36C980.637 1322.16 975.607 1334.98 972.767 1341.86C969.937 1348.73 964.887 1360.66 961.557 1368.36C958.217 1376.06 950.887 1391.58 945.257 1402.86C939.627 1414.14 929.947 1432.36 923.737 1443.36C917.537 1454.36 911.347 1465.16 909.987 1467.36C908.617 1469.56 905.467 1474.51 902.987 1478.36C900.497 1482.21 895.507 1489.86 891.897 1495.36C888.297 1500.86 880.087 1512.33 873.667 1520.86C867.257 1529.39 857.107 1542.2 851.137 1549.35C845.157 1556.49 832.847 1569.94 823.767 1579.23C814.687 1588.53 800.297 1602.06 791.767 1609.3C783.237 1616.54 770.187 1626.99 762.767 1632.51C755.347 1638.04 745.217 1645.26 740.267 1648.57C735.317 1651.87 726.317 1657.42 720.267 1660.9C714.217 1664.38 704.317 1669.56 698.267 1672.42C692.217 1675.28 682.317 1679.72 676.267 1682.3C670.217 1684.88 659.647 1688.71 652.767 1690.81C645.897 1692.91 634.977 1695.81 628.517 1697.25C622.057 1698.68 613.727 1700.32 610.017 1700.88C606.307 1701.44 597.867 1702.63 591.267 1703.53C583.007 1704.65 571.317 1705.19 553.767 1705.25C534.817 1705.31 524.667 1704.87 514.267 1703.55C506.567 1702.58 496.217 1701.07 491.267 1700.2C486.317 1699.33 475.967 1697.13 468.267 1695.31C460.567 1693.48 450.217 1690.56 445.267 1688.81C440.317 1687.06 431.767 1683.85 426.267 1681.67C420.767 1679.48 409.287 1674.21 400.767 1669.95C392.247 1665.69 378.517 1657.94 370.267 1652.73C362.017 1647.52 350.317 1639.66 344.267 1635.27C338.217 1630.89 328.997 1623.72 323.767 1619.36C318.537 1614.99 306.627 1603.98 297.287 1594.89C287.947 1585.8 277.277 1574.98 273.557 1570.86C269.847 1566.73 260.807 1555.94 253.467 1546.86C246.137 1537.78 234.497 1522.48 227.617 1512.86C220.727 1503.23 212.607 1491.53 209.557 1486.86C206.517 1482.19 200.877 1472.96 197.037 1466.36C193.187 1459.76 188.007 1450.76 185.537 1446.36C183.057 1441.96 178.757 1434.08 175.997 1428.86C173.227 1423.64 166.587 1409.91 161.247 1398.36C155.897 1386.81 148.277 1369.71 144.297 1360.36C140.317 1351.01 133.117 1332.78 128.297 1319.86C123.467 1306.94 116.697 1287.81 113.247 1277.36C109.787 1266.91 104.917 1251.16 102.427 1242.36C99.9269 1233.56 95.5969 1217.36 92.7869 1206.36C89.9769 1195.36 85.4869 1176.01 82.8169 1163.36C80.1369 1150.71 77.0169 1135.19 75.8769 1128.86C74.7369 1122.53 72.4669 1108.36 70.8269 1097.36C69.1869 1086.36 66.9069 1069.71 65.7669 1060.36C64.6169 1051.01 62.7969 1035.26 61.7069 1025.36C60.6269 1015.46 59.0869 998.357 58.2769 987.357C57.4769 976.357 56.3569 953.407 55.7869 936.357C55.0869 915.297 55.0669 891.407 55.7469 861.857C56.2969 837.937 57.2069 810.707 57.7669 801.357C58.3269 792.007 59.6969 774.457 60.8069 762.357C61.9169 750.257 63.9469 731.127 65.3069 719.857C66.6669 708.587 68.4769 694.627 69.3469 688.857C70.2069 683.087 72.2469 671.157 73.8869 662.357C75.5269 653.557 77.9969 640.727 79.3769 633.857C80.7469 626.977 83.1769 615.957 84.7669 609.357C86.3569 602.757 88.5669 593.527 89.6769 588.857C90.7869 584.187 94.6169 570.687 98.1869 558.857C101.757 547.027 106.227 532.857 108.127 527.357C110.017 521.857 114.047 510.377 117.077 501.857C120.097 493.337 125.487 479.157 129.057 470.357C132.617 461.557 137.407 449.857 139.717 444.357C142.017 438.857 145.277 431.207 146.977 427.357C148.667 423.507 153.747 412.927 158.277 403.857C162.797 394.787 170.887 379.037 176.237 368.857C181.587 358.677 190.707 342.477 196.487 332.857C202.277 323.227 210.867 309.507 215.587 302.357C220.297 295.207 227.967 284.177 232.637 277.857C237.307 271.537 244.567 262.087 248.787 256.857C252.997 251.627 262.747 240.377 270.457 231.857C278.157 223.337 290.527 210.507 297.937 203.357C305.347 196.207 315.657 186.487 320.837 181.767C326.027 177.047 335.217 169.217 341.267 164.367C347.317 159.527 360.597 150.067 370.767 143.357C380.937 136.647 397.597 126.727 407.767 121.307C417.937 115.887 430.997 109.367 436.767 106.817C442.537 104.267 451.537 100.787 456.767 99.077C461.997 97.367 469.417 95.067 473.267 93.957C477.117 92.847 487.017 90.597 495.267 88.957C503.517 87.317 515.437 85.497 521.767 84.907Z" fill="#EDEDE9"/>
<path d="M482.767 652.377C495.687 651.517 511.217 650.667 517.267 650.477C523.317 650.287 542.437 650.277 559.767 650.447C577.097 650.617 599.817 651.447 610.267 652.287C620.717 653.137 637.817 654.747 648.267 655.867C658.717 656.987 672.887 658.787 679.767 659.877C686.637 660.957 694.737 662.257 697.767 662.767C700.797 663.277 712.267 665.537 723.267 667.797C734.267 670.067 748.437 673.217 754.767 674.817C761.097 676.417 772.567 679.497 780.267 681.667C787.967 683.837 801.917 687.957 811.267 690.827C820.617 693.687 835.467 698.667 844.267 701.877C853.067 705.097 862.517 708.697 865.267 709.887C868.017 711.067 874.317 713.517 879.267 715.327C884.217 717.137 896.597 722.307 906.767 726.817C916.937 731.317 934.717 739.687 946.267 745.397C957.817 751.117 973.377 759.067 980.847 763.077C988.317 767.077 998.447 772.747 1003.35 775.657C1008.26 778.577 1013.62 782.057 1018.27 785.827V827.757C1018.27 850.817 1017.93 869.947 1017.52 870.267C1017.11 870.597 1015.76 870.337 1014.52 869.707C1013.28 869.067 1007.99 865.307 1002.77 861.347C997.547 857.387 988.097 850.347 981.767 845.697C975.437 841.057 967.347 835.297 963.767 832.897C960.187 830.497 951.647 824.597 944.767 819.787C937.897 814.977 924.957 806.497 916.017 800.947C907.077 795.397 899.547 790.857 899.267 790.857C898.987 790.857 897.077 789.797 895.017 788.507C892.957 787.217 885.867 783.227 879.267 779.637C872.667 776.047 858.937 768.877 848.767 763.697C838.597 758.527 826.897 752.777 822.767 750.927C818.647 749.077 807.617 744.527 798.267 740.817C788.917 737.117 774.067 731.797 765.267 728.997C756.467 726.207 742.297 722.117 733.767 719.907C725.237 717.697 711.737 714.507 703.767 712.827C695.797 711.137 682.297 708.627 673.767 707.257C665.237 705.877 652.187 704.087 644.767 703.287C637.347 702.477 622.047 701.117 610.767 700.267C596.827 699.217 576.837 698.727 548.267 698.737C519.137 698.747 500.447 699.237 487.267 700.317C476.817 701.177 462.187 702.557 454.767 703.377C447.347 704.207 438.117 705.337 434.267 705.897C430.417 706.447 424.787 707.347 421.767 707.887C418.747 708.427 410.417 710.007 403.267 711.407C396.117 712.817 387.117 714.667 383.267 715.527C379.417 716.387 369.747 718.867 361.767 721.047C353.787 723.217 342.997 726.347 337.767 728.007C332.537 729.657 320.847 733.727 311.767 737.067C302.687 740.397 284.917 748.217 272.267 754.437C259.617 760.667 244.767 768.177 239.267 771.137C233.767 774.097 222.067 780.697 213.267 785.807C204.467 790.927 184.667 803.467 169.267 813.677C153.867 823.897 137.667 835.007 133.267 838.377C128.867 841.737 119.867 848.337 113.267 853.037C106.667 857.737 98.6769 862.997 95.5169 864.717C92.3569 866.447 89.3169 867.627 88.7669 867.357C88.1269 867.037 87.7669 852.117 87.7769 825.607C87.7869 802.917 88.1269 783.307 88.5269 782.037C88.9769 780.617 91.8169 778.207 95.7669 775.887C99.3469 773.787 104.287 770.967 106.767 769.617C109.247 768.267 113.517 765.807 116.267 764.147C119.017 762.487 129.817 756.617 140.267 751.097C150.717 745.577 165.567 737.947 173.267 734.147C180.967 730.357 194.247 724.247 202.767 720.587C211.287 716.927 226.367 710.827 236.267 707.027C246.167 703.237 260.347 698.077 267.767 695.567C275.187 693.057 287.117 689.197 294.267 686.997C301.417 684.787 313.567 681.157 321.267 678.917C328.967 676.687 340.217 673.727 346.267 672.327C352.317 670.937 362.437 668.737 368.767 667.447C375.097 666.147 383.187 664.597 386.767 663.997C390.347 663.397 398.887 662.027 405.767 660.957C412.637 659.897 422.997 658.497 428.767 657.867C434.537 657.237 443.767 656.087 449.267 655.327C454.767 654.557 469.847 653.227 482.767 652.377Z" fill="#FDCC06"/>
<path d="M509.767 107.407C516.637 106.517 527.667 105.417 534.267 104.967C540.867 104.517 551.437 104.077 557.767 103.997C564.097 103.917 577.597 104.537 587.767 105.377C597.937 106.207 611.437 107.577 617.767 108.407C624.097 109.237 633.317 110.627 638.267 111.497C643.217 112.357 647.717 113.627 648.267 114.307C648.917 115.127 649.327 162.437 649.427 250.957C649.527 325.427 649.297 386.937 648.927 387.657C648.387 388.717 644.977 388.727 630.267 387.697C619.897 386.977 592.347 386.437 565.267 386.427C537.297 386.417 511.387 386.907 501.267 387.647C491.917 388.337 478.647 389.357 471.767 389.927C464.897 390.487 459.157 390.817 459.027 390.657C458.897 390.487 458.807 328.937 458.817 253.857C458.827 178.777 458.937 117.267 459.047 117.147C459.167 117.027 461.287 116.517 463.767 115.997C466.247 115.477 474.787 113.697 482.767 112.037C490.747 110.377 502.887 108.287 509.767 107.407Z" fill="#030403"/>
<path d="M765.757 259.357C765.197 239.557 764.457 214.917 764.097 204.607C763.517 187.577 763.607 185.857 765.117 185.857C766.027 185.857 772.727 191.207 780.017 197.757C787.307 204.297 797.587 214.087 802.867 219.507C808.147 224.927 817.367 235.027 823.367 241.967C829.357 248.897 836.997 257.897 840.327 261.967C843.667 266.027 849.307 273.177 852.867 277.857C856.427 282.527 863.207 291.977 867.947 298.857C872.687 305.727 880.047 316.977 884.297 323.857C888.547 330.727 896.047 343.327 900.967 351.857C905.877 360.377 911.847 371.407 914.237 376.357C916.617 381.307 920.237 388.957 922.267 393.357C924.297 397.757 927.917 406.077 930.307 411.857C932.697 417.627 937.157 428.207 940.217 435.357C943.277 442.507 945.777 448.917 945.777 449.607C945.767 450.297 945.317 450.857 944.767 450.857C944.217 450.857 940.957 449.677 937.517 448.237C934.077 446.797 922.047 442.547 910.767 438.797C899.487 435.037 879.467 429.287 866.267 426.007C853.067 422.727 833.717 418.157 823.267 415.857C812.817 413.547 797.067 410.207 788.267 408.417C779.467 406.637 771.817 404.917 771.267 404.617C770.677 404.277 769.967 393.927 769.527 379.207C769.117 365.537 768.327 341.077 767.777 324.857C767.227 308.627 766.317 279.157 765.757 259.357Z" fill="#030403"/>
<path d="M288.187 245.857C295.157 237.877 309.947 222.467 321.067 211.607C332.177 200.747 341.827 191.857 342.517 191.857C343.377 191.857 343.757 193.667 343.747 197.607C343.737 200.767 343.307 214.607 342.777 228.357C342.247 242.107 341.367 268.657 340.817 287.357C340.267 306.057 339.287 339.357 338.637 361.357C337.987 383.357 337.417 401.477 337.367 401.627C337.307 401.777 333.887 402.537 329.767 403.317C325.637 404.097 313.937 406.527 303.767 408.717C293.597 410.907 276.487 414.947 265.767 417.707C255.037 420.457 234.567 425.877 220.267 429.757C205.967 433.637 189.427 438.397 183.517 440.337C177.077 442.447 172.567 443.457 172.267 442.857C171.987 442.307 172.617 439.497 173.657 436.607C174.687 433.717 176.977 427.757 178.737 423.357C180.497 418.957 184.417 409.727 187.447 402.857C190.477 395.977 194.867 386.527 197.207 381.857C199.547 377.177 204.957 366.827 209.227 358.857C213.507 350.877 218.827 341.207 221.057 337.357C223.287 333.507 228.867 324.727 233.457 317.857C238.057 310.977 244.507 301.527 247.787 296.857C251.077 292.177 258.657 282.057 264.637 274.357C270.617 266.657 281.217 253.827 288.187 245.857Z" fill="#030403"/>
<path d="M481.017 441.327C482.807 441.037 492.367 440.427 502.267 439.977C512.167 439.527 526.457 439.087 547.767 438.857V455.857C547.767 472.807 547.757 472.857 545.517 472.887C544.277 472.907 536.287 473.347 527.767 473.867C519.247 474.377 511.927 475.157 511.507 475.577C511.077 476.007 511.077 484.137 512.267 510.937L528.267 510.857C537.067 510.807 544.607 511.127 545.017 511.567C545.427 511.997 545.657 519.327 545.267 543.357L511.267 545.357L510.767 585.857L524.517 585.157C532.077 584.767 540.067 584.427 546.267 584.357L546.517 599.357C546.657 607.607 546.437 614.667 546.017 615.057C545.607 615.437 537.847 616.027 528.767 616.357C519.687 616.687 505.067 617.337 496.267 617.797C487.467 618.247 479.707 618.447 479.017 618.237C478.037 617.937 477.707 599.437 477.487 531.107C477.327 483.397 477.327 443.797 477.487 443.107C477.637 442.417 479.227 441.617 481.017 441.327Z" fill="#030403"/>
<path d="M570.787 569.857C571.297 545.377 571.717 505.897 571.737 482.107L571.767 438.857H589.767C603.107 438.857 607.957 439.177 608.507 440.107C608.917 440.797 610.667 446.977 612.387 453.857C614.107 460.727 618.007 476.257 621.037 488.357C624.077 500.457 626.947 512.077 627.417 514.177C627.887 516.287 628.717 517.977 629.267 517.937C629.907 517.887 630.447 504.147 630.767 479.937C631.047 459.087 631.487 441.737 631.767 441.387C632.047 441.037 638.567 441.027 646.267 441.377C653.967 441.717 660.937 442.407 661.767 442.897C663.097 443.677 663.057 450.877 661.427 507.067C660.417 541.877 659.317 581.157 658.967 594.357C658.457 614.167 658.077 618.597 656.807 619.727C655.817 620.607 654.017 620.897 651.767 620.527C649.847 620.227 643.547 619.697 637.767 619.357C631.987 619.017 626.477 618.207 625.507 617.547C624.227 616.687 622.787 611.697 620.257 599.357C618.327 590.007 615.177 575.377 613.257 566.857C611.327 558.327 608.317 545.727 606.577 538.857C604.287 529.847 603.197 526.917 602.657 528.357C602.247 529.457 601.877 548.917 601.837 571.607C601.797 594.297 601.547 613.527 601.267 614.357C600.857 615.597 598.307 615.857 586.517 615.837C578.677 615.837 571.727 615.497 571.067 615.087C570.137 614.527 570.077 604.217 570.787 569.857Z" fill="#030403"/>
<path d="M425.267 446.417C432.967 445.497 440.167 444.617 441.267 444.447C442.367 444.267 445.467 444.067 453.037 443.857L453.387 459.107C453.577 467.497 453.847 507.197 454.267 620.327L449.767 621.037C447.287 621.417 440.767 622.157 435.267 622.677C429.767 623.187 424.627 623.327 423.847 622.987C422.647 622.447 422.507 615.137 422.937 574.357C423.347 536.207 423.197 526.977 422.237 529.357C421.577 531.007 420.527 535.277 419.917 538.857C419.317 542.437 417.717 551.437 416.367 558.857C415.017 566.277 412.267 583.377 410.247 596.857C408.227 610.327 406.387 622.367 406.167 623.607C405.927 624.957 404.867 626.047 403.517 626.327C402.277 626.587 397.917 626.927 386.377 627.357L385.607 624.357C385.187 622.707 383.727 614.827 382.357 606.857C380.987 598.877 378.497 584.477 376.827 574.857C375.157 565.227 372.987 551.957 372.017 545.357C371.037 538.757 369.797 533.477 369.257 533.637C368.647 533.807 368.437 538.207 368.717 545.137C368.967 551.307 369.197 572.967 369.267 630.187L359.267 631.917C353.767 632.867 347.357 634.137 345.017 634.747C341.737 635.607 340.467 635.567 339.467 634.607C338.437 633.617 338.017 615.597 337.417 546.357C336.997 498.507 337.027 459.077 337.467 458.737C337.907 458.397 347.487 456.707 358.767 454.977C370.037 453.237 379.577 452.167 379.957 452.587C380.337 453.017 381.557 458.757 382.687 465.357C383.807 471.957 385.597 482.307 386.667 488.357C387.55 493.398 388.961 501.423 390.078 507.778L390.707 511.357C391.867 517.957 393.067 526.057 393.377 529.357C393.687 532.657 394.177 535.807 394.457 536.357C394.804 537.024 395.26 537.024 395.827 536.357C396.297 535.807 396.947 532.877 397.277 529.857C397.597 526.827 398.037 522.777 398.237 520.857C398.447 518.937 399.577 511.277 400.757 503.857C401.927 496.437 404.017 484.277 405.387 476.857C406.757 469.437 408.417 460.147 409.077 456.217C409.727 452.297 410.487 448.857 410.767 448.577C411.037 448.297 417.567 447.327 425.267 446.417Z" fill="#030403"/>
<path d="M684.597 461.527C684.507 452.537 684.797 444.897 685.237 444.537C685.687 444.177 688.577 444.117 691.657 444.417C694.747 444.717 699.967 445.377 703.267 445.887C706.567 446.387 716.237 447.747 724.767 448.907C733.287 450.057 745.437 451.887 751.767 452.957C758.087 454.027 763.827 455.117 764.517 455.387C765.477 455.747 765.627 459.467 765.157 471.607C764.817 480.267 764.257 487.707 763.907 488.137C763.557 488.567 758.987 488.207 753.767 487.347C748.537 486.477 743.817 485.957 743.267 486.177C742.667 486.427 741.737 499.097 740.957 517.477C740.237 534.457 738.987 559.827 738.177 573.857C737.367 587.877 736.437 605.657 736.117 613.357C735.73 622.697 735.12 627.697 734.287 628.357C733.447 629.037 728.287 628.707 718.377 627.357C710.307 626.257 703.387 624.837 702.987 624.207C702.587 623.567 703.007 606.017 703.917 585.207C704.817 564.387 706.057 535.207 706.667 520.357C707.277 505.507 707.887 490.437 708.267 480.377L701.767 479.637C698.187 479.227 692.907 478.657 684.767 477.857L684.597 461.527Z" fill="#030403"/>
<path d="M784.817 473.057C784.897 465.557 785.357 461.337 786.187 460.477C787.197 459.427 790.197 459.797 802.347 462.487C810.557 464.307 817.827 466.037 818.517 466.327C819.367 466.687 819.617 468.377 819.297 471.607C819.037 474.217 818.357 484.907 817.777 495.357C817.197 505.807 815.827 530.557 814.737 550.357C813.647 570.157 812.697 591.077 812.627 596.857C812.527 605.487 812.837 607.937 814.387 610.587C815.417 612.357 817.277 614.277 818.517 614.837C819.757 615.397 821.667 615.857 822.767 615.857C823.867 615.857 825.667 615.407 826.767 614.857C827.867 614.307 829.167 612.617 829.667 611.107C830.157 609.597 831.487 595.077 832.627 578.857C833.767 562.627 835.387 539.007 836.227 526.357C837.077 513.707 838.257 496.377 838.847 487.857C839.527 478.067 840.357 472.127 841.097 471.737C841.737 471.397 846.537 471.947 851.767 472.977C856.987 473.997 863.517 475.297 866.267 475.857C871.107 476.857 871.277 477.007 871.557 480.627C871.707 482.677 871.357 491.327 870.767 499.857C870.187 508.377 869.247 521.657 868.697 529.357C868.147 537.057 867.277 550.327 866.757 558.857C866.247 567.377 865.367 581.107 864.807 589.357C864.247 597.607 863.307 607.727 862.707 611.857C862.107 615.977 860.957 621.607 860.147 624.357C859.337 627.107 857.457 631.547 855.977 634.237C854.487 636.917 851.467 640.717 849.267 642.677C847.067 644.637 843.017 647.277 840.267 648.537C837.517 649.807 833.017 651.127 830.267 651.467C827.517 651.817 822.787 651.577 819.767 650.927C816.737 650.277 810.557 647.967 806.017 645.797C800.737 643.277 796.057 640.127 793.017 637.047C790.407 634.407 786.817 629.347 785.047 625.797C783.017 621.757 781.187 615.807 780.117 609.857C778.607 601.397 778.547 598.227 779.617 580.857C780.267 570.127 781.257 550.327 781.817 536.857C782.377 523.377 783.247 506.057 783.757 498.357C784.267 490.657 784.747 479.277 784.817 473.057Z" fill="#030403"/>
<path d="M288.057 467.617C292.567 466.657 298.967 465.237 302.267 464.457C305.567 463.677 308.937 463.117 309.767 463.217C311.077 463.367 311.297 472.207 311.547 534.867C311.777 596.107 311.597 607.357 310.287 613.357C309.437 617.207 307.487 623.057 305.937 626.357C304.267 629.927 300.867 634.587 297.557 637.857C294.257 641.117 288.997 644.857 284.627 647.047C280.577 649.087 274.337 651.497 270.767 652.417C266.617 653.487 261.917 653.937 257.767 653.667C253.587 653.387 249.307 652.317 245.767 650.637C242.397 649.047 238.407 645.977 235.457 642.697C232.667 639.597 229.787 635.047 228.617 631.857C227.507 628.827 226.227 623.877 225.777 620.857C225.317 617.827 224.687 586.107 224.357 550.357C223.887 499.037 224.027 485.027 225.017 483.797C225.707 482.937 229.867 481.407 234.267 480.407C238.667 479.407 244.737 477.987 247.767 477.237C250.787 476.497 254.057 475.887 255.017 475.877C256.667 475.857 256.787 479.877 257.117 543.607C257.377 594.217 257.767 612.117 258.687 614.357C259.367 616.007 260.447 617.687 261.097 618.087C261.737 618.497 263.387 618.827 264.767 618.827C266.137 618.827 269.067 617.957 271.267 616.897C273.837 615.647 275.977 613.607 277.267 611.157C279.207 607.477 279.277 605.127 279.847 469.357L288.057 467.617Z" fill="#030403"/>
<path d="M908.767 492.487C911.237 490.797 915.287 488.847 917.767 488.147C920.237 487.447 924.967 487.057 928.267 487.297C931.567 487.537 937.637 488.937 941.767 490.417C945.887 491.897 951.707 494.737 954.687 496.737C957.667 498.727 961.547 502.157 963.317 504.357C965.077 506.557 967.477 510.267 968.647 512.607C969.817 514.947 971.447 519.447 972.267 522.607C973.237 526.287 973.777 533.037 973.787 541.357C973.797 550.337 973.407 554.867 972.537 556.007C971.377 557.507 970.137 557.277 945.267 549.127L944.627 539.747C944.257 534.387 943.297 528.957 942.377 527.107C941.407 525.157 939.367 523.257 937.267 522.357C935.337 521.527 932.867 520.857 931.767 520.857C930.667 520.857 928.607 521.867 927.187 523.107C925.067 524.957 924.497 526.527 924.017 531.857C923.557 536.867 923.857 539.507 925.307 543.357C926.347 546.107 932.047 554.767 937.977 562.607C943.917 570.447 951.407 580.797 954.637 585.607C957.857 590.417 961.297 595.937 962.277 597.857C963.257 599.777 964.897 603.827 965.917 606.857C966.927 609.877 968.037 615.957 968.377 620.357C968.717 624.757 968.497 632.407 967.907 637.357C967.317 642.307 965.917 649.277 964.807 652.857C963.697 656.437 961.097 661.767 959.027 664.707C956.957 667.647 953.237 671.337 950.767 672.907C948.287 674.477 943.337 676.507 939.767 677.427C934.357 678.807 932.177 678.897 926.767 677.977C923.187 677.367 917.567 675.577 914.267 673.997C910.967 672.417 905.727 668.707 902.617 665.747C899.507 662.777 895.367 657.877 893.427 654.857C891.487 651.827 888.887 646.437 887.667 642.857C885.967 637.907 885.327 633.267 884.967 623.357C884.707 616.207 884.777 609.117 885.127 607.607C885.477 606.097 886.437 604.627 887.267 604.357C888.087 604.077 894.507 605.667 901.517 607.887C908.527 610.107 914.857 612.687 915.587 613.637C916.547 614.877 916.727 617.167 916.257 621.857C915.907 625.437 915.947 630.157 916.357 632.357C916.827 634.887 918.417 637.757 920.687 640.157C923.627 643.267 924.937 643.937 928.017 643.907C930.967 643.867 932.137 643.277 933.517 641.147C934.927 638.967 935.267 636.197 935.267 626.897C935.267 616.007 935.097 615.037 932.267 609.637C930.617 606.497 924.267 597.497 918.157 589.637C912.047 581.787 904.707 571.757 901.857 567.357C898.997 562.957 895.737 556.437 894.607 552.857C893.437 549.167 892.327 542.247 892.037 536.857C891.757 531.627 892.037 524.097 892.647 520.107C893.267 516.117 894.817 510.497 896.107 507.607C897.397 504.717 899.757 500.827 901.357 498.957C902.957 497.087 906.287 494.177 908.767 492.487Z" fill="#030403"/>
<path d="M179.017 495.787C186.307 493.547 192.717 491.557 193.267 491.367C193.817 491.167 195.277 490.977 198.767 490.857L198.757 563.607C198.757 607.617 198.357 638.727 197.747 642.357C197.197 645.657 195.007 651.957 192.877 656.357C189.987 662.327 187.517 665.717 183.137 669.707C179.907 672.657 174.117 676.597 170.267 678.477C166.417 680.357 160.567 682.407 157.267 683.017C153.967 683.637 149.237 683.837 146.767 683.477C144.287 683.107 139.907 681.467 137.017 679.837C133.297 677.727 130.657 675.177 127.987 671.107C125.787 667.767 123.457 662.417 122.417 658.357C121.437 654.507 120.217 647.867 119.697 643.607C119.167 639.177 119.137 635.107 119.637 634.107C120.187 632.997 124.867 630.947 132.387 628.527C138.917 626.417 144.937 624.847 145.767 625.037C146.837 625.287 147.497 627.507 148.067 632.867C148.507 636.987 149.637 641.937 150.567 643.857C151.727 646.237 153.067 647.467 154.767 647.687C156.327 647.897 158.487 647.047 160.517 645.437C162.577 643.807 164.207 641.297 164.957 638.607C165.837 635.477 166.097 616.647 165.767 499.857L179.017 495.787Z" fill="#030403"/>
<path d="M476.767 722.807C486.387 722.197 504.167 721.327 516.267 720.857C528.367 720.397 550.637 720.217 565.767 720.467C580.887 720.717 602.937 721.567 614.767 722.377C626.587 723.177 639.537 724.177 650.797 725.357L650.267 993.357L569.767 993.427C525.487 993.467 480.827 993.807 451.767 994.857V724.857L455.517 724.377C457.577 724.117 467.137 723.407 476.767 722.807Z" fill="#030403"/>
<path d="M266.767 780.287C272.537 777.037 282.667 771.617 289.267 768.237C295.867 764.867 301.717 762.197 302.267 762.317C302.927 762.457 303.297 823.367 303.337 942.437C303.387 1053.18 303.867 1138.89 304.587 1165.36C305.237 1189.01 306.217 1219.16 306.777 1232.36C307.337 1245.56 308.457 1268.96 309.277 1284.36C310.087 1299.76 311.217 1320.23 311.787 1329.86C312.357 1339.48 313.267 1353.89 313.797 1361.86C314.337 1369.83 316.127 1394.81 317.787 1417.36C319.437 1439.91 321.257 1463.98 321.817 1470.86C322.387 1477.73 323.497 1491.68 324.287 1501.86C325.077 1512.03 325.737 1520.92 325.747 1521.61C325.757 1522.3 324.977 1522.86 324.017 1522.87C323.057 1522.87 317.087 1518.22 310.767 1512.54C304.437 1506.85 292.217 1494.58 283.607 1485.28C274.997 1475.97 264.217 1463.64 259.657 1457.86C255.097 1452.08 247.257 1441.51 242.227 1434.36C237.197 1427.21 230.157 1416.64 226.587 1410.86C223.017 1405.08 217.157 1395.41 213.567 1389.36C209.987 1383.31 202.297 1368.91 196.487 1357.36C190.677 1345.81 183.137 1330.28 179.737 1322.86C176.337 1315.43 171.627 1304.86 169.277 1299.36C166.927 1293.86 163.427 1285.08 161.487 1279.86C159.557 1274.64 156.087 1264.73 153.777 1257.86C151.467 1250.98 148.717 1241.42 147.667 1236.61C145.837 1228.18 145.767 1221.06 145.767 859.857L149.517 857.027C151.577 855.467 161.137 848.557 170.767 841.677C180.387 834.787 195.467 824.307 204.267 818.387C213.067 812.467 228.367 802.797 238.267 796.907C248.167 791.017 260.987 783.537 266.767 780.287Z" fill="#030403"/>
<path d="M803.207 905.857C803.227 828.527 803.627 766.057 804.107 765.687C804.587 765.317 809.767 767.527 815.617 770.597C821.477 773.667 835.267 781.127 846.267 787.187C857.267 793.237 869.867 800.437 874.267 803.177C878.667 805.927 888.117 811.997 895.267 816.677C902.417 821.347 915.687 830.357 924.767 836.697C933.837 843.037 945.657 851.517 960.767 862.857L960.977 925.107C961.097 959.347 961.087 1041.81 960.947 1108.36C960.717 1225.39 960.637 1229.62 958.717 1237.36C957.617 1241.76 955.357 1249.86 953.677 1255.36C952.007 1260.86 949.797 1267.83 948.787 1270.86C947.767 1273.89 944.867 1281.98 942.337 1288.86C939.807 1295.73 936.647 1303.61 935.317 1306.36C933.987 1309.11 930.357 1316.98 927.257 1323.86C924.157 1330.73 917.677 1344.01 912.867 1353.36C908.057 1362.71 901.247 1375.08 897.747 1380.86C894.237 1386.64 888.247 1396.31 884.437 1402.36C880.617 1408.41 872.947 1419.66 867.387 1427.36C861.827 1435.06 851.677 1448.11 844.837 1456.36C838.007 1464.61 825.847 1478.04 817.837 1486.21C809.827 1494.38 798.537 1504.97 792.767 1509.76C786.987 1514.54 779.907 1520.12 777.017 1522.16C774.127 1524.19 771.317 1525.86 770.767 1525.86C770.217 1525.86 769.657 1525.39 769.517 1524.82C769.377 1524.25 770.027 1516.71 770.947 1508.07C771.877 1499.43 773.317 1486.28 774.157 1478.86C774.987 1471.43 776.357 1458.39 777.187 1449.86C778.017 1441.33 779.397 1426.71 780.257 1417.36C781.117 1408.01 782.257 1396.31 782.787 1391.36C783.317 1386.41 784.867 1368.41 786.237 1351.36C787.597 1334.31 789.407 1311.14 790.247 1299.86C791.077 1288.58 792.227 1272.61 792.797 1264.36C793.357 1256.11 794.477 1238.56 795.277 1225.36C796.077 1212.16 797.177 1192.81 797.727 1182.36C798.277 1171.91 799.197 1154.36 799.757 1143.36C800.327 1132.36 801.327 1105.81 801.977 1084.36C802.707 1060.73 803.187 990.387 803.207 905.857Z" fill="#030403"/>
<path d="M460.787 1070.87C463.277 1068.39 467.327 1065.35 469.787 1064.11C472.247 1062.87 475.957 1061.86 478.017 1061.86C481.177 1061.86 481.937 1062.29 482.867 1064.61C483.477 1066.12 484.817 1071.41 485.847 1076.36C486.887 1081.31 489.987 1100.43 492.757 1118.86C495.517 1137.28 498.217 1154.83 498.757 1157.86C499.297 1160.89 500.417 1166.73 501.257 1170.86C502.087 1174.98 503.437 1180.72 504.267 1183.61C505.087 1186.5 506.217 1188.86 506.767 1188.86C507.317 1188.86 512.157 1186.41 517.517 1183.41C522.877 1180.41 530.867 1176.74 535.267 1175.25C540.647 1173.43 545.397 1172.53 549.767 1172.51C553.907 1172.49 558.807 1173.32 563.267 1174.77C567.117 1176.03 572.737 1178.35 575.767 1179.91C578.787 1181.48 582.617 1183.68 584.267 1184.8C585.917 1185.93 587.607 1186.85 588.017 1186.85C588.427 1186.86 589.167 1185.85 589.657 1184.61C590.157 1183.37 591.677 1178.08 593.057 1172.86C594.427 1167.64 596.917 1157.28 598.597 1149.86C600.277 1142.43 603.017 1129.61 604.697 1121.36C606.387 1113.11 609.127 1097.36 610.797 1086.36C612.467 1075.36 614.277 1065.35 614.807 1064.11C615.467 1062.55 616.607 1061.86 618.517 1061.87C620.027 1061.88 623.407 1062.55 626.017 1063.37C628.627 1064.19 632.407 1066.1 634.417 1067.61C636.417 1069.12 639.977 1072.83 642.317 1075.86C644.657 1078.89 648.347 1084.96 650.527 1089.36C652.697 1093.76 655.437 1100.28 656.607 1103.86C657.767 1107.43 659.407 1113.62 660.247 1117.61C661.087 1121.6 662.047 1129.7 662.397 1135.61C662.787 1142.16 662.557 1149.87 661.817 1155.36C661.147 1160.31 659.507 1168.64 658.177 1173.86C656.847 1179.08 654.147 1186.73 652.197 1190.86C650.237 1194.98 645.787 1202.64 642.297 1207.86C638.817 1213.08 633.667 1219.95 630.867 1223.11C628.057 1226.27 625.757 1228.97 625.747 1229.11C625.727 1229.25 628.147 1233.86 631.117 1239.36C634.087 1244.86 639.337 1255.43 642.787 1262.86C648.417 1274.98 648.997 1276.82 648.467 1280.86C648.087 1283.73 646.577 1287.17 644.307 1290.36C641.377 1294.45 640.557 1296.72 639.787 1302.86C639.267 1306.98 637.907 1322.51 636.777 1337.36C635.647 1352.21 634.037 1369.76 633.197 1376.36C632.357 1382.96 630.117 1398.48 628.207 1410.86C626.307 1423.23 624.047 1436.06 623.207 1439.36C622.357 1442.66 620.677 1447.34 619.467 1449.75C618.257 1452.17 615.577 1456.11 613.517 1458.5C610.947 1461.48 608.977 1462.86 607.267 1462.86C605.507 1462.86 604.597 1462.19 604.197 1460.61C603.877 1459.37 603.877 1451.39 604.177 1442.86C604.487 1434.33 604.967 1423.65 605.257 1419.11C605.647 1412.75 605.477 1410.97 604.517 1411.35C603.827 1411.62 602.277 1415.11 601.067 1419.1C599.867 1423.09 597.737 1431.31 596.357 1437.36C594.967 1443.41 593.127 1452.41 592.267 1457.36C591.407 1462.31 590.447 1471.08 590.117 1476.86C589.677 1484.84 590.067 1491.21 591.757 1503.36C593.137 1513.29 593.737 1521.26 593.347 1524.36C593.007 1527.11 591.377 1532.17 589.747 1535.61C588.107 1539.05 584.407 1544.39 581.517 1547.48C578.627 1550.57 574.237 1554.47 571.767 1556.16C569.287 1557.84 564.117 1560.28 560.267 1561.59C556.417 1562.9 550.337 1564.23 546.767 1564.55C542.107 1564.96 538.567 1564.64 534.267 1563.39C530.967 1562.43 526.237 1560.62 523.767 1559.36C521.287 1558.1 517.237 1555.3 514.767 1553.13C512.287 1550.96 508.837 1546.98 507.097 1544.28C505.347 1541.57 502.987 1536.55 501.847 1533.11C500.687 1529.63 499.777 1524.32 499.787 1521.11C499.797 1517.95 500.457 1509.96 501.257 1503.36C502.057 1496.76 502.717 1486.75 502.737 1481.11C502.757 1475.47 502.097 1465.8 501.287 1459.61C500.477 1453.42 498.647 1442.73 497.237 1435.86C495.817 1428.98 494.007 1421 493.207 1418.11C492.327 1414.89 491.287 1412.99 490.517 1413.2C489.647 1413.43 489.307 1415.76 489.407 1420.95C489.487 1425.02 489.857 1435.11 490.227 1443.36C490.677 1453.23 490.547 1459.3 489.837 1461.11C489.247 1462.62 488.087 1463.86 487.267 1463.86C486.437 1463.86 484.147 1462.4 482.167 1460.61C480.177 1458.82 477.047 1454.21 475.187 1450.36C473.237 1446.31 470.977 1439.15 469.827 1433.36C468.727 1427.86 466.717 1414.58 465.357 1403.86C463.997 1393.14 462.167 1374.46 461.307 1362.36C460.437 1350.26 459.047 1332.48 458.227 1322.86C457.397 1313.23 456.457 1304.01 456.127 1302.36C455.807 1300.71 454.007 1296.21 452.137 1292.36C450.267 1288.51 448.477 1283.78 448.167 1281.86C447.717 1279.11 448.557 1276.1 452.087 1267.86C454.557 1262.08 458.197 1253.87 460.177 1249.61C462.147 1245.35 465.557 1239.05 467.737 1235.61C469.927 1232.17 471.727 1229.02 471.737 1228.61C471.757 1228.2 469.227 1225.05 466.127 1221.61C463.027 1218.17 458.117 1212.21 455.227 1208.36C452.327 1204.51 448.587 1198.66 446.907 1195.36C445.227 1192.06 442.697 1186.66 441.277 1183.36C439.867 1180.06 437.757 1173.08 436.587 1167.86C434.967 1160.66 434.437 1154.86 434.397 1143.86C434.367 1135.37 434.887 1126.87 435.657 1123.36C436.387 1120.06 438.337 1113.08 439.987 1107.86C441.647 1102.64 444.587 1095.21 446.517 1091.36C448.447 1087.51 451.437 1082.34 453.147 1079.87C454.867 1077.4 458.297 1073.35 460.787 1070.87Z" fill="#030403"/>
<path d="M459.487 1095.04C461.567 1091.57 465.197 1086.68 467.547 1084.19C469.897 1081.7 472.267 1079.93 472.797 1080.26C473.327 1080.59 473.977 1082.32 474.237 1084.11C474.487 1085.9 476.077 1097.71 477.767 1110.36C479.467 1123.01 481.727 1139.21 482.797 1146.36C483.867 1153.51 485.647 1164.08 486.757 1169.86C487.867 1175.64 489.897 1184.52 491.277 1189.61C492.647 1194.7 493.547 1199.65 493.287 1200.61C493.017 1201.57 490.127 1205.06 480.907 1214.36L474.217 1207.86C470.537 1204.29 465.697 1198.66 463.467 1195.36C461.227 1192.06 458.137 1186.66 456.597 1183.36C455.057 1180.06 452.587 1172.86 451.117 1167.36C448.807 1158.76 448.437 1155.39 448.437 1143.36C448.437 1135.66 448.997 1126.66 449.677 1123.36C450.357 1120.06 451.987 1113.76 453.307 1109.36C454.627 1104.96 457.407 1098.52 459.487 1095.04Z" fill="#EDEDE9"/>
<path d="M623.267 1090.86C623.617 1087.83 624.127 1084.57 624.397 1083.61C624.657 1082.65 625.417 1081.85 626.067 1081.83C626.727 1081.82 628.207 1082.83 629.367 1084.08C630.517 1085.34 632.967 1088.61 634.807 1091.36C636.637 1094.11 639.427 1099.51 640.997 1103.36C642.567 1107.21 644.827 1113.96 646.007 1118.36C647.647 1124.49 648.157 1129.29 648.177 1138.86C648.197 1147.08 647.597 1154.27 646.427 1159.86C645.447 1164.54 643.327 1172.19 641.707 1176.86C640.097 1181.54 637.317 1187.83 635.517 1190.84C633.727 1193.86 628.587 1200.04 624.087 1204.59C619.587 1209.14 615.087 1212.85 614.087 1212.83C613.037 1212.81 610.377 1210.22 607.767 1206.67C605.297 1203.3 602.767 1199.6 602.147 1198.45C601.247 1196.78 601.607 1194.35 603.947 1186.36C605.557 1180.86 607.537 1173.44 608.357 1169.86C609.167 1166.29 611.857 1153.46 614.317 1141.36C616.787 1129.26 619.657 1114.19 620.707 1107.86C621.757 1101.54 622.907 1093.89 623.267 1090.86Z" fill="#EDEDE9"/>
<path d="M544.567 1225.56C544.457 1224.85 544.997 1223.72 545.767 1223.06C546.537 1222.4 547.417 1221.85 547.717 1221.83C548.017 1221.81 548.977 1222.6 549.847 1223.58C550.717 1224.56 553.767 1230.08 556.617 1235.86C559.477 1241.64 562.257 1248.83 562.797 1251.86C563.347 1254.89 563.777 1262.76 563.767 1269.36C563.767 1275.96 563.117 1285.64 562.337 1290.86C561.557 1296.08 559.947 1304.19 558.767 1308.86C557.577 1313.54 555.227 1319.83 553.527 1322.86C550.867 1327.6 550.337 1329.81 549.657 1338.86C549.227 1344.64 548.587 1367.58 548.237 1389.86C547.887 1412.14 547.237 1431.04 546.797 1431.86C546.127 1433.1 545.887 1433.01 545.407 1431.36C545.087 1430.26 544.337 1416.76 543.737 1401.36C543.137 1385.96 542.247 1363.01 541.767 1350.36C541.277 1337.71 540.577 1326.24 540.217 1324.86C539.847 1323.49 538.677 1319.44 537.617 1315.86C536.557 1312.29 535.027 1305.31 534.227 1300.36C533.367 1294.99 532.777 1284.4 532.767 1274.11C532.767 1262.17 533.257 1254.47 534.367 1249.11C535.247 1244.85 537.277 1238.77 538.867 1235.61C540.467 1232.45 541.797 1229.52 541.837 1229.11C541.877 1228.7 542.557 1228.02 543.337 1227.61C544.127 1227.2 544.677 1226.28 544.567 1225.56Z" fill="#EDEDE9"/>
<path d="M465.997 1302.86C465.537 1298.74 465.317 1294.8 465.527 1294.11C465.737 1293.42 467.217 1292.86 468.837 1292.86C470.447 1292.86 473.227 1293.52 475.017 1294.32C476.807 1295.12 480.627 1298.27 483.517 1301.32C486.417 1304.38 490.197 1309.88 491.967 1313.61C494.497 1318.97 495.167 1321.7 495.267 1333.36L490.017 1333.11C487.127 1332.97 482.857 1332.02 480.517 1330.99C478.177 1329.96 474.997 1327.83 473.447 1326.24C471.747 1324.5 469.877 1320.78 468.737 1316.86C467.687 1313.29 466.457 1306.99 465.997 1302.86Z" fill="#EDEDE9"/>
<path d="M613.767 1299.68C615.147 1298.66 618.067 1297.17 620.267 1296.38C622.467 1295.59 624.717 1294.91 625.267 1294.86C625.817 1294.81 626.937 1295.53 627.767 1296.45C628.947 1297.77 629.137 1299.74 628.657 1305.74C628.237 1310.98 627.137 1315.36 625.157 1319.76C623.567 1323.28 620.917 1327.35 619.267 1328.81C617.617 1330.27 613.797 1332.4 610.767 1333.55C607.737 1334.7 603.467 1335.81 597.267 1336.36L597.337 1332.36C597.387 1329.97 599.107 1324.55 601.627 1318.86C603.947 1313.64 607.057 1307.6 608.557 1305.46C610.047 1303.31 612.397 1300.71 613.767 1299.68Z" fill="#EDEDE9"/>
</svg>
